<?xml version="1.0" standalone="no"?>
<!DOCTYPE svg PUBLIC "-//W3C//DTD SVG 20010904//EN"
 "http://www.w3.org/TR/2001/REC-SVG-20010904/DTD/svg10.dtd">
<svg version="1.0" xmlns="http://www.w3.org/2000/svg"
 width="2048.000000pt" height="2048.000000pt" viewBox="0 0 2048.000000 2048.000000"
 preserveAspectRatio="xMidYMid meet">

<g transform="translate(0.000000,2048.000000) scale(0.100000,-0.100000)"
fill="#000000" stroke="none">
<path d="M0 10240 l0 -10240 10240 0 10240 0 0 10240 0 10240 -10240 0 -10240
0 0 -10240z m13858 3792 c2 -1141 0 -1433 -10 -1436 -7 -3 -913 -7 -2013 -11
l-2000 -6 2 1208 c2 664 6 1313 9 1440 l6 233 1582 2 c869 2 1770 3 2001 3
l420 0 3 -1433z m-8388 -122 l0 -1550 -525 0 -525 0 0 1550 0 1550 525 0 525
0 0 -1550z m1280 182 c0 -753 -3 -1451 -7 -1550 l-6 -182 -529 0 -528 0 0
1550 0 1550 535 0 535 0 0 -1368z m1270 -182 l0 -1550 -535 0 -535 0 0 883 c0
485 3 1182 7 1550 l6 667 529 0 528 0 0 -1550z m1614 13 c-3 -846 -7 -1544
-10 -1550 -3 -10 -151 -13 -699 -13 l-695 0 0 1550 0 1550 705 0 705 0 -6
-1537z m2976 -1553 c0 -7 259 -498 576 -1092 317 -594 574 -1081 572 -1083 -2
-2 -890 -7 -1972 -11 l-1969 -7 6 234 c4 129 7 623 7 1099 l0 865 1390 4
c1109 3 1390 1 1390 -9z m-7148 -1915 l-3 -1690 -40 -50 c-115 -143 -434 -589
-610 -850 -186 -276 -330 -662 -393 -1050 -2 -16 -3 418 -2 966 l3 997 59 69
c141 163 288 375 345 497 52 113 114 315 148 484 16 79 32 146 35 149 3 3 20
6 36 5 23 0 33 5 39 21 8 21 21 1344 13 1379 -3 16 -19 17 -158 16 -137 -1
-156 -4 -165 -19 -11 -22 -12 -1406 -1 -1411 14 -5 -36 -230 -79 -361 -21 -65
-56 -153 -77 -195 -38 -75 -163 -265 -182 -277 -11 -7 -14 2997 -3 3008 3 4
239 6 522 5 l516 -3 -3 -1690z m1276 21 l-3 -1673 -43 -54 c-119 -149 -436
-590 -613 -854 -165 -246 -297 -575 -370 -925 -32 -153 -33 -409 -2 -495 81
-226 114 -309 132 -338 12 -19 21 -37 21 -41 0 -3 -43 -6 -95 -6 l-95 0 0 823
c0 453 3 1040 7 1305 l6 482 56 66 c199 237 338 428 401 554 50 98 125 338
156 495 21 108 32 144 48 157 21 17 21 25 27 695 4 373 5 688 2 700 -5 22 -7
23 -160 21 -136 -1 -155 -4 -164 -19 -5 -11 -8 -289 -7 -711 l3 -693 28 3 c34
3 34 -4 6 -141 -28 -134 -89 -320 -137 -415 -41 -80 -167 -268 -227 -337 l-34
-40 -1 1558 0 1557 530 0 530 0 -2 -1674z m1273 -91 l-4 -1760 -67 -95 c-361
-511 -433 -618 -509 -757 -107 -194 -207 -477 -262 -743 -32 -153 -33 -409 -2
-495 75 -211 114 -309 133 -340 22 -35 22 -35 3 -68 l-19 -32 -172 -3 -172 -2
0 523 c0 288 3 882 7 1320 l6 797 56 66 c199 237 338 428 401 554 49 97 125
336 156 493 24 116 31 137 46 137 10 0 22 10 27 23 8 21 21 1344 13 1379 -3
16 -19 17 -158 16 -137 -1 -156 -4 -165 -19 -5 -11 -8 -289 -7 -711 l3 -693
23 2 c27 3 27 6 1 -120 -28 -134 -89 -320 -137 -415 -41 -80 -167 -268 -227
-337 l-34 -40 -1 1536 c0 845 3 1539 7 1542 3 4 243 6 532 5 l526 -3 -4 -1760z
m1608 913 c-1 -469 -5 -927 -10 -1018 -12 -209 -12 -246 -4 -294 4 -21 4 -904
0 -1962 l-7 -1924 -315 0 c-247 0 -314 3 -311 13 28 105 43 130 95 163 147 94
176 288 63 417 -110 125 -304 112 -397 -27 -42 -61 -57 -117 -50 -187 6 -68
27 -111 79 -165 l39 -41 -26 -59 c-14 -32 -38 -71 -52 -86 l-27 -28 -239 0
-239 0 4 1228 3 1227 68 85 c38 47 106 130 150 184 192 232 242 297 316 406
43 63 93 144 111 180 43 86 122 328 151 463 19 89 25 107 41 107 10 0 22 10
27 23 8 21 21 1344 13 1379 -3 16 -18 18 -153 16 -82 -1 -155 -5 -161 -10 -10
-6 -14 -161 -16 -708 l-4 -700 26 0 c14 0 26 -6 26 -12 0 -25 -59 -244 -85
-318 -40 -113 -94 -213 -175 -330 -76 -110 -101 -141 -242 -308 l-88 -102 0
1620 0 1620 695 0 695 0 -1 -852z m-2889 -4033 l0 -1175 -230 0 c-126 0 -230
3 -230 8 0 4 11 47 25 96 21 77 30 93 64 122 115 99 112 280 -7 371 -121 92
-293 48 -358 -92 -44 -93 -27 -182 49 -260 48 -49 49 -51 40 -95 -4 -25 -12
-45 -18 -45 -16 0 -53 76 -101 207 -65 174 -64 172 -64 288 0 128 12 210 50
360 85 338 189 555 425 894 229 329 347 496 352 496 1 0 3 -529 3 -1175z
m-1270 -15 l0 -1160 -260 0 c-143 0 -260 2 -260 4 0 2 14 60 31 128 24 92 39
131 60 156 45 51 62 92 66 162 6 85 -22 142 -92 185 -43 26 -57 30 -124 30
-141 0 -208 -61 -220 -201 l-7 -79 -12 40 c-14 49 -15 224 -2 320 15 98 61
278 110 420 71 211 170 394 355 659 229 329 347 496 352 496 1 0 3 -522 3
-1160z m2547 -1146 c-1 -1 -78 -4 -170 -5 l-168 -3 -54 54 c-65 65 -65 85 1
120 169 89 200 344 57 470 -81 71 -180 76 -275 14 l-38 -24 0 62 c1 204 104
565 239 833 55 109 121 215 241 387 l165 236 3 -1070 c1 -589 1 -1072 -1
-1074z m-3505 161 c25 -66 50 -130 56 -142 22 -40 16 -44 -65 -41 l-78 3 -2
225 -2 225 23 -75 c13 -41 44 -129 68 -195z m262 15 c-10 -61 -14 -58 -49 34
l-25 67 40 -33 c37 -30 40 -36 34 -68z"/>
<path d="M10877 15023 c4 -159 8 -184 26 -194 8 -5 370 -8 809 -7 l793 3 1
100 c0 55 -1 126 -4 158 l-4 57 -812 0 -813 0 4 -117z"/>
<path d="M10857 14003 c4 -159 8 -184 26 -194 8 -5 370 -8 809 -7 l793 3 1
100 c0 55 -1 126 -4 158 l-4 57 -812 0 -813 0 4 -117z"/>
<path d="M10847 13113 c4 -159 8 -184 26 -194 8 -5 370 -8 809 -7 l793 3 1
100 c0 55 -1 126 -4 158 l-4 57 -812 0 -813 0 4 -117z"/>
<path d="M4840 15210 l-55 -5 2 -695 c4 -1057 14 -1864 23 -1873 8 -9 320 -10
329 -1 8 8 1 188 -8 193 -7 5 -17 2090 -10 2293 2 43 0 80 -3 83 -8 8 -209 11
-278 5z"/>
<path d="M6128 15202 l-78 -3 0 -1284 c0 -1249 1 -1285 19 -1294 19 -11 307
-8 318 2 9 10 10 96 1 146 -4 25 -11 582 -14 1236 -4 655 -7 1191 -9 1193 -4
5 -152 7 -237 4z"/>
<path d="M7346 15062 c-2 -4 -7 -174 -10 -377 -4 -204 -8 -485 -11 -625 -3
-140 -8 -526 -11 -858 l-7 -604 151 4 c83 2 155 8 159 12 13 12 20 195 22 556
1 190 3 356 5 370 3 14 7 318 11 675 4 371 11 651 16 653 5 2 9 46 9 97 0 88
-1 93 -22 98 -38 7 -307 7 -312 -1z"/>
<path d="M8823 14982 c-10 -11 -13 -114 -13 -525 0 -282 -3 -815 -7 -1185 l-6
-672 99 1 c172 1 214 8 224 34 5 13 10 387 12 832 3 697 6 923 21 1431 1 65
-1 85 -13 92 -24 15 -301 8 -317 -8z"/>
</g>
</svg>
